<svg width="200" height="200" viewBox="0 0 200 200" fill="none" xmlns="http://www.w3.org/2000/svg">
<rect width="200" height="200" rx="51" fill="black"/>
<path d="M20.0974 148V77.5419H38.1636V94.7048L36.2279 91.8658C37.2603 86.446 39.7551 82.4456 43.7125 79.8647C47.6699 77.2838 52.4015 75.9934 57.9074 75.9934C63.7574 75.9934 68.8761 77.4989 73.2636 80.5099C77.7371 83.4349 80.5331 87.3923 81.6515 92.382L76.1026 92.8982C78.4254 87.1342 81.7375 82.8757 86.039 80.1228C90.3404 77.3699 95.3732 75.9934 101.137 75.9934C106.213 75.9934 110.686 77.1118 114.558 79.3485C118.515 81.5853 121.612 84.7254 123.849 88.7687C126.086 92.7261 127.204 97.3717 127.204 102.706V148H107.847V106.835C107.847 104.082 107.331 101.716 106.299 99.7375C105.353 97.7588 103.976 96.2103 102.169 95.0919C100.363 93.9735 98.1691 93.4143 95.5882 93.4143C93.0934 93.4143 90.8996 93.9735 89.007 95.0919C87.2004 96.2103 85.7809 97.7588 84.7485 99.7375C83.8022 101.716 83.329 104.082 83.329 106.835V148H63.9724V106.835C63.9724 104.082 63.4562 101.716 62.4239 99.7375C61.4776 97.7588 60.1011 96.2103 58.2945 95.0919C56.4879 93.9735 54.2941 93.4143 51.7132 93.4143C49.2184 93.4143 47.0246 93.9735 45.132 95.0919C43.3254 96.2103 41.9059 97.7588 40.8735 99.7375C39.9272 101.716 39.454 104.082 39.454 106.835V148H20.0974Z" fill="white"/>
<path d="M148.459 148V94.3176H136.587V77.5419H148.459V76.5096C148.459 70.9176 149.534 66.186 151.685 62.3147C153.922 58.4434 157.105 55.4754 161.234 53.4107C165.364 51.346 170.354 50.3136 176.204 50.3136C177.322 50.3136 178.526 50.3996 179.817 50.5717C181.107 50.6577 182.183 50.7868 183.043 50.9588V67.4765C182.183 67.3044 181.408 67.2184 180.72 67.2184C180.118 67.1324 179.473 67.0893 178.784 67.0893C175.171 67.0893 172.418 67.9066 170.526 69.5412C168.719 71.0897 167.816 73.4125 167.816 76.5096V77.5419H182.914V94.3176H167.816V148H148.459Z" fill="#2F58CD"/>
</svg>
